{
  "accessors": [
    {
      "bufferView": 2,
      "componentType": 5126,
      "count": 361,
      "max": [
        20.010000228881836,
        105.54940032958984,
        13.84850025177002
      ],
      "min": [
        -20.010000228881836,
        8.583800315856934,
        -11.963600158691406
      ],
      "type": "VEC3"
    },
    {
      "bufferView": 2,
      "byteOffset": 4332,
      "componentType": 5126,
      "count": 361,
      "max": [
        0.9994397163391113,
        0.9556483030319214,
        0.9994990825653076
      ],
      "min": [
        -0.9994397163391113,
        -0.3411436080932617,
        -0.9987654089927673
      ],
      "type": "VEC3"
    },
    {
      "bufferView": 1,
      "componentType": 5126,
      "count": 361,
      "max": [
        0.99462890625,
        0.9922981262207031
      ],
      "min": [
        0.00878143310546875,
        0.0087890625
      ],
      "type": "VEC2"
    },
    {
      "bufferView": 0,
      "componentType": 5125,
      "count": 1854,
      "type": "SCALAR"
    },
    {
      "bufferView": 2,
      "byteOffset": 8664,
      "componentType": 5126,
      "count": 298,
      "max": [
        23.189437866210938,
        16.346843719482422,
        11.69933795928955
      ],
      "min": [
        -23.189437866210938,
        -0.09498810768127441,
        -17.46736717224121
      ],
      "type": "VEC3"
    },
    {
      "bufferView": 2,
      "byteOffset": 12240,
      "componentType": 5126,
      "count": 298,
      "max": [
        0.9997775554656982,
        0.9999861717224121,
        0.996463418006897
      ],
      "min": [
        -0.9997775554656982,
        -0.978847086429596,
        -0.9997864961624146
      ],
      "type": "VEC3"
    },
    {
      "bufferView": 1,
      "byteOffset": 2888,
      "componentType": 5126,
      "count": 298,
      "max": [
        0.95654296875,
        0.9949951171875
      ],
      "min": [
        0.01009368896484375,
        0.01123046875
      ],
      "type": "VEC2"
    },
    {
      "bufferView": 0,
      "byteOffset": 7416,
      "componentType": 5125,
      "count": 1332,
      "type": "SCALAR"
    },
    {
      "bufferView": 2,
      "byteOffset": 15816,
      "componentType": 5126,
      "count": 1117,
      "max": [
        48.592201232910156,
        182.69607543945313,
        15.941635131835938
      ],
      "min": [
        -48.78020095825195,
        91.37529754638672,
        -19.397781372070313
      ],
      "type": "VEC3"
    },
    {
      "bufferView": 2,
      "byteOffset": 29220,
      "componentType": 5126,
      "count": 1117,
      "max": [
        0.9984584450721741,
        0.9975937008857727,
        0.9987718462944031
      ],
      "min": [
        -0.9999295473098755,
        -0.9427171349525452,
        -0.9996113777160645
      ],
      "type": "VEC3"
    },
    {
      "bufferView": 1,
      "byteOffset": 5272,
      "componentType": 5126,
      "count": 1117,
      "max": [
        0.994140625,
        0.9927024841308594
      ],
      "min": [
        0.006099700927734375,
        0.0068359375
      ],
      "type": "VEC2"
    },
    {
      "bufferView": 0,
      "byteOffset": 12744,
      "componentType": 5125,
      "count": 5592,
      "type": "SCALAR"
    },
    {
      "bufferView": 2,
      "byteOffset": 42624,
      "componentType": 5126,
      "count": 344,
      "max": [
        20.177799224853516,
        104.46890258789063,
        14.144767761230469
      ],
      "min": [
        -21.053600311279297,
        54.2621955871582,
        -12.738998413085938
      ],
      "type": "VEC3"
    },
    {
      "bufferView": 2,
      "byteOffset": 46752,
      "componentType": 5126,
      "count": 344,
      "max": [
        0.9953203201293945,
        0.9998822212219238,
        0.999394416809082
      ],
      "min": [
        -0.9963200688362122,
        -0.9964861869812012,
        -0.9995323419570923
      ],
      "type": "VEC3"
    },
    {
      "bufferView": 1,
      "byteOffset": 14208,
      "componentType": 5126,
      "count": 344,
      "max": [
        0.994140625,
        0.9943008422851563
      ],
      "min": [
        0.006099700927734375,
        0.00341796875
      ],
      "type": "VEC2"
    },
    {
      "bufferView": 0,
      "byteOffset": 35112,
      "componentType": 5125,
      "count": 1584,
      "type": "SCALAR"
    },
    {
      "bufferView": 2,
      "byteOffset": 50880,
      "componentType": 5126,
      "count": 1708,
      "max": [
        53.43743896484375,
        153.8780975341797,
        14.04763126373291
      ],
      "min": [
        -53.43743896484375,
        91.67510986328125,
        -18.981021881103516
      ],
      "type": "VEC3"
    },
    {
      "bufferView": 2,
      "byteOffset": 71376,
      "componentType": 5126,
      "count": 1708,
      "max": [
        0.998243510723114,
        0.9926354289054871,
        0.9998586177825928
      ],
      "min": [
        -0.998243510723114,
        -0.9286674857139587,
        -0.9990190863609314
      ],
      "type": "VEC3"
    },
    {
      "bufferView": 1,
      "byteOffset": 16960,
      "componentType": 5126,
      "count": 1708,
      "max": [
        0.994140625,
        0.9952926635742188
      ],
      "min": [
        0.004299163818359375,
        0.00732421875
      ],
      "type": "VEC2"
    },
    {
      "bufferView": 0,
      "byteOffset": 41448,
      "componentType": 5125,
      "count": 8502,
      "type": "SCALAR"
    },
    {
      "bufferView": 2,
      "byteOffset": 91872,
      "componentType": 5126,
      "count": 112,
      "max": [
        22.456899642944336,
        10.787400245666504,
        10.514900207519531
      ],
      "min": [
        -22.456899642944336,
        0.5016000270843506,
        -15.780500411987305
      ],
      "type": "VEC3"
    },
    {
      "bufferView": 2,
      "byteOffset": 93216,
      "componentType": 5126,
      "count": 112,
      "max": [
        0.9937098026275635,
        0.997894287109375,
        0.9847527146339417
      ],
      "min": [
        -0.9937098026275635,
        -0.9193968772888184,
        -0.9715762734413147
      ],
      "type": "VEC3"
    },
    {
      "bufferView": 1,
      "byteOffset": 30624,
      "componentType": 5126,
      "count": 112,
      "max": [
        0.962890625,
        0.979400634765625
      ],
      "min": [
        0.0295867919921875,
        0.01904296875
      ],
      "type": "VEC2"
    },
    {
      "bufferView": 0,
      "byteOffset": 75456,
      "componentType": 5125,
      "count": 510,
      "type": "SCALAR"
    },
    {
      "bufferView": 2,
      "byteOffset": 94560,
      "componentType": 5126,
      "count": 1704,
      "max": [
        9.422149658203125,
        180.04505920410156,
        9.848299980163574
      ],
      "min": [
        -9.42205810546875,
        148.5542449951172,
        -11.679901123046875
      ],
      "type": "VEC3"
    },
    {
      "bufferView": 2,
      "byteOffset": 115008,
      "componentType": 5126,
      "count": 1704,
      "max": [
        0.9974285364151001,
        0.999548077583313,
        0.9985852837562561
      ],
      "min": [
        -0.9974127411842346,
        -0.9999892711639404,
        -0.984825849533081
      ],
      "type": "VEC3"
    },
    {
      "bufferView": 1,
      "byteOffset": 31520,
      "componentType": 5126,
      "count": 1704,
      "max": [
        0.9921875,
        0.9796142578125
      ],
      "min": [
        0.007598876953125,
        0.0146484375
      ],
      "type": "VEC2"
    },
    {
      "bufferView": 0,
      "byteOffset": 77496,
      "componentType": 5125,
      "count": 9942,
      "type": "SCALAR"
    },
    {
      "bufferView": 2,
      "byteOffset": 135456,
      "componentType": 5126,
      "count": 1143,
      "max": [
        53.43743896484375,
        108.68373107910156,
        -4.924232482910156
      ],
      "min": [
        -53.43743896484375,
        91.67510986328125,
        -18.98101806640625
      ],
      "type": "VEC3"
    },
    {
      "bufferView": 2,
      "byteOffset": 149172,
      "componentType": 5126,
      "count": 1143,
      "max": [
        0.9982442259788513,
        0.9926354289054871,
        0.9970079064369202
      ],
      "min": [
        -0.9982442259788513,
        -0.7641085982322693,
        -0.9903380274772644
      ],
      "type": "VEC3"
    },
    {
      "bufferView": 1,
      "byteOffset": 45152,
      "componentType": 5126,
      "count": 1143,
      "max": [
        0.208740234375,
        0.9929771423339844
      ],
      "min": [
        0.004299163818359375,
        0.691650390625
      ],
      "type": "VEC2"
    },
    {
      "bufferView": 0,
      "byteOffset": 117264,
      "componentType": 5125,
      "count": 5667,
      "type": "SCALAR"
    },
    {
      "bufferView": 2,
      "byteOffset": 162888,
      "componentType": 5126,
      "count": 3667,
      "max": [
        24.230257034301758,
        155.57106018066406,
        41.758445739746094
      ],
      "min": [
        -24.230257034301758,
        110.81962585449219,
        -7.7987213134765625
      ],
      "type": "VEC3"
    },
    {
      "bufferView": 2,
      "byteOffset": 206892,
      "componentType": 5126,
      "count": 3667,
      "max": [
        1.0,
        1.0,
        1.0
      ],
      "min": [
        -1.0,
        -0.9997885227203369,
        -1.0
      ],
      "type": "VEC3"
    },
    {
      "bufferView": 1,
      "byteOffset": 54296,
      "componentType": 5126,
      "count": 3667,
      "max": [
        0.9951171875,
        0.9975776672363281
      ],
      "min": [
        0.0035228729248046875,
        0.0048828125
      ],
      "type": "VEC2"
    },
    {
      "bufferView": 0,
      "byteOffset": 139932,
      "componentType": 5125,
      "count": 9780,
      "type": "SCALAR"
    }
  ],
  "asset": {
    "extras": {
      "author": "DFLEX (https://sketchfab.com/DFLEX)",
      "license": "CC-BY-4.0 (http://creativecommons.org/licenses/by/4.0/)",
      "source": "https://sketchfab.com/3d-models/pubg-mobile-scout-op-character-65dd85baf1fd40d8b57ebd9da4a440a3",
      "title": "PUBG Mobile scOut OP Character"
    },
    "generator": "Sketchfab-12.68.0",
    "version": "2.0"
  },
  "bufferViews": [
    {
      "buffer": 0,
      "byteLength": 179052,
      "name": "floatBufferViews",
      "target": 34963
    },
    {
      "buffer": 0,
      "byteLength": 83632,
      "byteOffset": 179052,
      "byteStride": 8,
      "name": "floatBufferViews",
      "target": 34962
    },
    {
      "buffer": 0,
      "byteLength": 250896,
      "byteOffset": 262684,
      "byteStride": 12,
      "name": "floatBufferViews",
      "target": 34962
    }
  ],
  "buffers": [
    {
      "byteLength": 513580,
      "uri": "scene.bin"
    }
  ],
  "images": [
    {
      "uri": "textures/mat0.002_baseColor.png"
    },
    {
      "uri": "textures/mat0.007_baseColor.png"
    },
    {
      "uri": "textures/mat0.008_baseColor.png"
    },
    {
      "uri": "textures/mat0.006_baseColor.png"
    },
    {
      "uri": "textures/mat0_baseColor.png"
    },
    {
      "uri": "textures/mat0.001_baseColor.png"
    },
    {
      "uri": "textures/mat0.005_baseColor.png"
    },
    {
      "uri": "textures/mat0.003_baseColor.png"
    }
  ],
  "materials": [
    {
      "doubleSided": true,
      "name": "mat0.002",
      "pbrMetallicRoughness": {
        "baseColorTexture": {
          "index": 0
        },
        "roughnessFactor": 0.552786
      }
    },
    {
      "doubleSided": true,
      "name": "mat0.007",
      "pbrMetallicRoughness": {
        "baseColorTexture": {
          "index": 1
        },
        "roughnessFactor": 0.552786
      }
    },
    {
      "doubleSided": true,
      "name": "mat0.008",
      "pbrMetallicRoughness": {
        "baseColorTexture": {
          "index": 2
        },
        "roughnessFactor": 0.552786
      }
    },
    {
      "doubleSided": true,
      "name": "mat0.006",
      "pbrMetallicRoughness": {
        "baseColorTexture": {
          "index": 3
        },
        "roughnessFactor": 0.552786
      }
    },
    {
      "doubleSided": true,
      "name": "mat0",
      "pbrMetallicRoughness": {
        "baseColorTexture": {
          "index": 4
        },
        "roughnessFactor": 0.552786
      }
    },
    {
      "doubleSided": true,
      "name": "mat0.001",
      "pbrMetallicRoughness": {
        "baseColorTexture": {
          "index": 5
        },
        "roughnessFactor": 0.552786
      }
    },
    {
      "doubleSided": true,
      "name": "mat0.005",
      "pbrMetallicRoughness": {
        "baseColorTexture": {
          "index": 6
        },
        "roughnessFactor": 0.552786
      }
    },
    {
      "doubleSided": true,
      "name": "mat0.004",
      "pbrMetallicRoughness": {
        "baseColorTexture": {
          "index": 4
        },
        "roughnessFactor": 0.552786
      }
    },
    {
      "doubleSided": true,
      "name": "mat0.003",
      "pbrMetallicRoughness": {
        "baseColorTexture": {
          "index": 7
        },
        "roughnessFactor": 0.552786
      }
    }
  ],
  "meshes": [
    {
      "name": "Object_0",
      "primitives": [
        {
          "attributes": {
            "NORMAL": 1,
            "POSITION": 0,
            "TEXCOORD_0": 2
          },
          "indices": 3,
          "material": 0,
          "mode": 4
        }
      ]
    },
    {
      "name": "Object_1",
      "primitives": [
        {
          "attributes": {
            "NORMAL": 5,
            "POSITION": 4,
            "TEXCOORD_0": 6
          },
          "indices": 7,
          "material": 1,
          "mode": 4
        }
      ]
    },
    {
      "name": "Object_2",
      "primitives": [
        {
          "attributes": {
            "NORMAL": 9,
            "POSITION": 8,
            "TEXCOORD_0": 10
          },
          "indices": 11,
          "material": 2,
          "mode": 4
        }
      ]
    },
    {
      "name": "Object_3",
      "primitives": [
        {
          "attributes": {
            "NORMAL": 13,
            "POSITION": 12,
            "TEXCOORD_0": 14
          },
          "indices": 15,
          "material": 3,
          "mode": 4
        }
      ]
    },
    {
      "name": "Object_4",
      "primitives": [
        {
          "attributes": {
            "NORMAL": 17,
            "POSITION": 16,
            "TEXCOORD_0": 18
          },
          "indices": 19,
          "material": 4,
          "mode": 4
        }
      ]
    },
    {
      "name": "Object_5",
      "primitives": [
        {
          "attributes": {
            "NORMAL": 21,
            "POSITION": 20,
            "TEXCOORD_0": 22
          },
          "indices": 23,
          "material": 5,
          "mode": 4
        }
      ]
    },
    {
      "name": "Object_6",
      "primitives": [
        {
          "attributes": {
            "NORMAL": 25,
            "POSITION": 24,
            "TEXCOORD_0": 26
          },
          "indices": 27,
          "material": 6,
          "mode": 4
        }
      ]
    },
    {
      "name": "Object_7",
      "primitives": [
        {
          "attributes": {
            "NORMAL": 29,
            "POSITION": 28,
            "TEXCOORD_0": 30
          },
          "indices": 31,
          "material": 7,
          "mode": 4
        }
      ]
    },
    {
      "name": "Object_8",
      "primitives": [
        {
          "attributes": {
            "NORMAL": 33,
            "POSITION": 32,
            "TEXCOORD_0": 34
          },
          "indices": 35,
          "material": 8,
          "mode": 4
        }
      ]
    }
  ],
  "nodes": [
    {
      "children": [
        1
      ],
      "matrix": [
        1.0,
        0.0,
        0.0,
        0.0,
        0.0,
        2.220446049250313e-16,
        -1.0,
        0.0,
        0.0,
        1.0,
        2.220446049250313e-16,
        0.0,
        0.0,
        0.0,
        0.0,
        1.0
      ],
      "name": "Sketchfab_model"
    },
    {
      "children": [
        2
      ],
      "name": "root"
    },
    {
      "children": [
        3
      ],
      "matrix": [
        1.0,
        0.0,
        0.0,
        0.0,
        0.0,
        2.220446049250313e-16,
        1.0,
        0.0,
        0.0,
        -1.0,
        2.220446049250313e-16,
        0.0,
        0.0,
        0.0,
        0.0,
        1.0
      ],
      "name": "GLTF_SceneRootNode"
    },
    {
      "children": [
        4,
        5,
        6,
        7,
        8,
        9,
        10,
        11,
        12
      ],
      "matrix": [
        0.0052927397191524506,
        0.0,
        0.0,
        0.0,
        0.0,
        0.0052927397191524506,
        0.0,
        0.0,
        0.0,
        0.0,
        0.0052927397191524506,
        0.0,
        0.0,
        0.0,
        0.0,
        1.0
      ],
      "name": "Mesh_0039.rip_0"
    },
    {
      "mesh": 0,
      "name": "Object_4"
    },
    {
      "mesh": 1,
      "name": "Object_5"
    },
    {
      "mesh": 2,
      "name": "Object_6"
    },
    {
      "mesh": 3,
      "name": "Object_7"
    },
    {
      "mesh": 4,
      "name": "Object_8"
    },
    {
      "mesh": 5,
      "name": "Object_9"
    },
    {
      "mesh": 6,
      "name": "Object_10"
    },
    {
      "mesh": 7,
      "name": "Object_11"
    },
    {
      "mesh": 8,
      "name": "Object_12"
    }
  ],
  "samplers": [
    {
      "magFilter": 9729,
      "minFilter": 9987,
      "wrapS": 10497,
      "wrapT": 10497
    }
  ],
  "scene": 0,
  "scenes": [
    {
      "name": "Sketchfab_Scene",
      "nodes": [
        0
      ]
    }
  ],
  "textures": [
    {
      "sampler": 0,
      "source": 0
    },
    {
      "sampler": 0,
      "source": 1
    },
    {
      "sampler": 0,
      "source": 2
    },
    {
      "sampler": 0,
      "source": 3
    },
    {
      "sampler": 0,
      "source": 4
    },
    {
      "sampler": 0,
      "source": 5
    },
    {
      "sampler": 0,
      "source": 6
    },
    {
      "sampler": 0,
      "source": 7
    }
  ]
}
